<svg xmlns="http://www.w3.org/2000/svg" height="1200" width="1600" version="1.1" xmlns:xlink="http://www.w3.org/1999/xlink" xmlns:svgjs="http://svgjs.com/svgjs"><rect fill="#f3ebe9" width="1600" height="1200"></rect><g><path d="M831.59 980.46C752.03 967.64 689 904.64 614.28 851.42 539.48 797.54 452.97 753.43 432.51 688.69 411.68 623.67 456.89 538.03 517.08 476.35 577.34 415.33 652.58 378.28 740.7 356.52 828.74 334.11 929.36 327.34 996.12 372.62 1062.87 417.9 1095.75 515.23 1108.38 615.11 1120.37 715.08 1112.4 817.24 1060.19 886.86 1007.98 956.48 911.51 993.56 831.59 980.46Z" fill="#efdcd7" opacity="1" stroke-width="4" stroke="none"></path></g><g><path d="M781.69 308.59L813.58 326.57C815.44 327.58 816.29 329.79 815.61 331.82L796.95 385.09C796.95 385.26 796.78 385.43 796.78 385.77 795.6 391.7 779.31 482.62 853.78 581.35 926.89 678.37 999.32 700.76 1088.2 718.57 1130.44 727.05 1149.1 737.91 1155.49 744.92 1151.18 753.28 1151.18 765.66 1149.22 763.52L1164.65 774.99C1166.57 781.67 1166.4 783.03 1165.72 784.05 1157.58 796.43 1100.92 871.24 929.09 851.05 744.54 828.83 662.44 649.7 657.52 542.5 652.43 433.77 701.11 395.26 727.91 368.46 745.56 350.65 761.84 330.81 775.92 309.94 777.11 308.08 779.65 307.4 781.69 308.59Z" fill="#ffc930" opacity="1" stroke-width="4" stroke="none"></path><path d="M1136.38 761.83C1089.56 765.22 950.63 780.32 830.03 659.71 706.2 535.89 776.43 358.46 784.91 343.36" stroke="#030303" stroke-width="4" stroke-linecap="round" stroke-linejoin="round" opacity="1" fill="none"></path><path d="M929.19 805.93C748.88 784.56 666.27 613.07 658.13 505.18 657.28 516.72 656.94 529.27 657.62 542.84 662.54 650.04 744.64 829.17 929.19 851.05 1116.31 873.1 1166.86 782.35 1166.86 782.35L1157.36 749.61C1135.48 773.7 1072.19 822.72 929.19 805.93Z" fill="#585755" opacity="0.2" stroke-width="4" stroke="none"></path><path d="M782.03 308.76L811.71 325.55C813.92 326.74 813.92 329.96 811.88 331.32L781.52 350.31 778.46 311.3C778.29 309.09 780.33 307.91 782.03 308.76Z" fill="#030303" stroke-linejoin="round" opacity="1" stroke-width="4" stroke="none"></path><path d="M1136.21 759.11L1151.47 745.03C1153.17 743.51 1155.71 744.19 1156.39 746.39L1164.53 774.55C1165.38 777.26 1162.5 779.47 1160.12 777.94L1136.71 763.86C1135.02 762.85 1134.85 760.47 1136.21 759.11Z" fill="#030303" opacity="1" stroke-width="4" stroke="none"></path><path d="M792.59 752.72C796.63 749.36 795.77 741.68 790.68 735.57 785.59 729.45 778.19 727.21 774.15 730.55 770.12 733.91 770.98 741.59 776.07 747.71 781.16 753.84 788.57 756.08 792.59 752.72Z" fill="#ac704e" opacity="1" stroke-width="4" stroke="none"></path><path d="M999.32 831.54C1007.27 831.54 1013.74 827.07 1013.74 821.54 1013.74 816.01 1007.27 811.53 999.32 811.53 991.34 811.53 984.9 816.01 984.9 821.54 984.9 827.07 991.34 831.54 999.32 831.54Z" fill="#ac704e" opacity="1" stroke-width="4" stroke="none"></path><path d="M823.4 751.87C826.42 749.36 826.43 744.41 823.45 740.79 820.45 737.2 815.56 736.32 812.54 738.84 809.52 741.35 809.49 746.31 812.49 749.92 815.49 753.52 820.36 754.4 823.4 751.87Z" fill="#ac704e" opacity="1" stroke-width="4" stroke="none"></path><path d="M948.87 781.74C950.11 778.5 948 774.69 944.17 773.21 940.32 771.72 936.18 773.14 934.94 776.36 933.69 779.6 935.81 783.44 939.64 784.91 943.49 786.39 947.61 784.98 948.87 781.74Z" fill="#ac704e" opacity="1" stroke-width="4" stroke="none"></path><path d="M768.51 675.42C773.76 671.04 772.68 661.07 766.08 653.15 759.5 645.23 749.9 642.36 744.64 646.72 739.38 651.1 740.45 661.07 747.05 668.99 753.65 676.91 763.25 679.78 768.51 675.42Z" fill="#ac704e" opacity="1" stroke-width="4" stroke="none"></path></g><g><path d="M670.33 546.43C647.63 576.29 607.46 583.97 607.46 583.97 607.46 583.97 604.07 543.16 626.77 513.3 649.46 483.44 689.63 475.76 689.63 475.76 689.63 475.76 693.02 516.57 670.33 546.43Z" fill="#3c2c5b" opacity="1" stroke-width="4" stroke="none"></path><path d="M607.46 583.97C607.46 583.97 604.07 543.16 626.77 513.3 649.46 483.44 689.63 475.76 689.63 475.76L607.46 583.97Z" fill="#5823bd" opacity="0.2" stroke-width="4" stroke="none"></path><path d="M536.69 594.53C573.22 603.08 609.06 583.4 609.06 583.4 609.06 583.4 585.67 549.79 549.15 541.24 512.63 532.69 476.78 552.37 476.78 552.37 476.78 552.37 500.17 585.98 536.69 594.53Z" fill="#3c2c5b" opacity="1" stroke-width="4" stroke="none"></path><path d="M609.06 583.4C609.06 583.4 585.67 549.79 549.15 541.24 512.63 532.69 476.78 552.37 476.78 552.37L609.06 583.4Z" fill="#5823bd" opacity="0.2" stroke-width="4" stroke="none"></path><path d="M610.6 509.18C623.27 544.39 607.83 582.48 607.83 582.48 607.83 582.48 571.73 563.16 558.98 527.76 546.24 492.35 561.75 454.45 561.75 454.45 561.75 454.45 597.85 473.77 610.6 509.18Z" fill="#3c2c5b" opacity="1" stroke-width="4" stroke="none"></path><path d="M607.83 582.48C607.83 582.48 571.73 563.16 558.98 527.76 546.24 492.35 561.75 454.45 561.75 454.45L607.83 582.48Z" fill="#5823bd" opacity="0.2" stroke-width="4" stroke="none"></path><path d="M607.76 582.28C592.89 573.62 579.91 562.03 569.76 548.28" stroke="#0d0d0d" stroke-width="4" stroke-linecap="round" stroke-linejoin="round" opacity="1" fill="none"></path><path d="M608.56 581.99C614.5 565.85 617.12 548.64 615.97 531.65" stroke="#0d0d0d" stroke-width="4" stroke-linecap="round" stroke-linejoin="round" opacity="1" fill="none"></path><path d="M605.46 575.88C530.44 602.88 496.24 640.96 518.92 703.97 550.17 790.79 649.13 876.75 706.34 856.15 763.55 835.56 785.03 706.26 753.78 619.43 731.09 556.42 680.47 548.88 605.46 575.88Z" fill="#ff4f32" opacity="1" stroke-width="4" stroke="none"></path><path d="M657.12 562.48C673.48 571.51 686.23 587.48 694.8 611.29 726.06 698.11 704.58 827.41 647.37 848 646.97 848.15 646.37 848.36 645.97 848.51 668 858.88 689.14 862.34 706.34 856.15 763.55 835.56 785.03 706.26 753.78 619.43 736.78 572.22 704.12 556.18 657.12 562.48Z" fill="#141110" opacity="0.2" stroke-width="4" stroke="none"></path><path d="M609.15 753.75L618.89 767.64" stroke="#141110" stroke-width="4" stroke-linecap="round" stroke-linejoin="round" opacity="1" fill="none"></path><path d="M716.17 715.22L717.32 732.21" stroke="#141110" stroke-width="4" stroke-linecap="round" stroke-linejoin="round" opacity="1" fill="none"></path><path d="M662.56 734.52L668.1 749.92" stroke="#141110" stroke-width="4" stroke-linecap="round" stroke-linejoin="round" opacity="1" fill="none"></path><path d="M660.7 797.78L670.45 811.68" stroke="#141110" stroke-width="4" stroke-linecap="round" stroke-linejoin="round" opacity="1" fill="none"></path><path d="M704.31 782.09L705.85 798.93" stroke="#141110" stroke-width="4" stroke-linecap="round" stroke-linejoin="round" opacity="1" fill="none"></path><path d="M561.82 712.03L571.76 725.85" stroke="#141110" stroke-width="4" stroke-linecap="round" stroke-linejoin="round" opacity="1" fill="none"></path><path d="M614.43 693.09L622.17 707.71" stroke="#141110" stroke-width="4" stroke-linecap="round" stroke-linejoin="round" opacity="1" fill="none"></path><path d="M725.86 652.98L727 669.97" stroke="#141110" stroke-width="4" stroke-linecap="round" stroke-linejoin="round" opacity="1" fill="none"></path><path d="M673.24 671.92L676.79 688.05" stroke="#141110" stroke-width="4" stroke-linecap="round" stroke-linejoin="round" opacity="1" fill="none"></path></g><g><path d="M480.4 765.38C493.48 762.39 507.59 767.96 518.61 778.98 529.63 767.96 543.74 762.39 556.82 765.38 578.45 770.32 589.16 796.69 580.72 824.4 572.27 852.1 547.86 870.54 526.23 865.59 523.55 864.98 521.08 864.05 518.61 862.81 516.24 864.05 513.67 864.98 510.99 865.59 489.36 870.54 464.95 852 456.51 824.4 448.06 796.79 458.77 770.32 480.4 765.38Z" fill="#9e76dd" opacity="1" stroke-width="4" stroke="none"></path><path d="M518.61 778.98C518.61 757.66 512.53 709.87 466.8 685.46" stroke="#000000" stroke-width="4" stroke-linecap="round" stroke-linejoin="round" opacity="1" fill="none"></path><path d="M519.95 840.05C534.12 840.05 545.59 829.59 545.59 816.67 545.59 803.76 534.12 793.29 519.95 793.29 505.79 793.29 494.3 803.76 494.3 816.67 494.3 829.59 505.79 840.05 519.95 840.05Z" fill="#3c2c5b" opacity="1" stroke-width="4" stroke="none"></path><path d="M531.48 795.76C532.62 798.44 533.24 801.22 533.24 804.21 533.24 817.08 521.8 827.59 507.59 827.59 503.47 827.59 499.56 826.66 496.05 825.12 499.76 833.87 509.03 840.05 519.95 840.05 534.16 840.05 545.59 829.55 545.59 816.67 545.59 807.51 539.83 799.57 531.48 795.76Z" fill="#000000" opacity="0.2" stroke-width="4" stroke="none"></path></g><g><path d="M646.87 863.09C604.4 889.63 541.89 865.92 541.89 865.92 541.89 865.92 548.14 799.28 590.6 772.86 633.07 746.43 695.58 770.02 695.58 770.02 695.58 770.02 689.33 836.55 646.87 863.09Z" fill="#ffa0dc" opacity="1" stroke-width="4" stroke="none"></path><path d="M646.87 863.09C604.4 889.63 541.89 865.92 541.89 865.92L695.58 770.02C695.58 770.02 689.33 836.55 646.87 863.09Z" fill="#d869af" opacity="0.2" stroke-width="4" stroke="none"></path><path d="M528.79 874.53L693.58 771.68" stroke="#000000" stroke-width="4" stroke-linecap="round" stroke-linejoin="round" opacity="1" fill="none"></path><path d="M680.01 820.63L632.71 809.66 643.68 762.36" stroke="#735869" stroke-width="4" stroke-linecap="round" stroke-linejoin="round" opacity="1" fill="none"></path><path d="M651.23 858.73L580.34 842.33 596.74 771.44" stroke="#735869" stroke-width="4" stroke-linecap="round" stroke-linejoin="round" opacity="1" fill="none"></path></g><g><path d="M1223.03 836.39L1233.16 854.66 1231.17 834.25 1252.22 837.65 1234.57 826.26 1250.26 815.37 1230.56 818.12 1230.32 800.03 1221.54 815.43 1204.21 806.04 1214.34 821.61 1197.95 826.99 1214.55 831.53 1207.29 849.27 1223.03 836.39Z" fill="#fffefc" opacity="1" stroke-width="4" stroke="none"></path></g><g><path d="M1162.27 324.57L1186.03 282.86 1185.43 327.32 1227.8 306.56 1195.6 340.25 1234.38 345.45 1196.8 357.42 1225.52 397.58 1179.92 373.58 1177.05 428.7 1158.56 375.74 1109.01 402.55 1139.95 354.79 1091.89 344.38 1144.44 336.54 1126.84 287.53 1162.27 324.57Z" fill="#fffefc" opacity="1" stroke-width="4" stroke="none"></path></g><g><path d="M384.59 503.56C383.13 515.09 391.3 525.62 402.83 527.08 414.37 528.54 424.9 520.37 426.36 508.83 427.81 497.3 419.64 486.77 408.11 485.31 396.57 483.85 386.04 492.02 384.59 503.56Z" fill="#fffefc" opacity="1" stroke-width="4" stroke="none"></path><path d="M335.67 546.98C334.59 555.52 340.65 563.33 349.19 564.41 357.74 565.49 365.55 559.43 366.63 550.88 367.71 542.34 361.65 534.53 353.1 533.45 344.55 532.37 336.75 538.43 335.67 546.98Z" fill="#fffefc" opacity="1" stroke-width="4" stroke="none"></path></g></svg>